<svg xmlns="http://www.w3.org/2000/svg" viewBox="0 0 10 10">
  <defs>
    <style>
      .cls-1 {
        fill: #f1eaf1;
      }
    </style>
  </defs>
  <g id="Icone_-_Calendrier" data-name="Icone - Calendrier" transform="translate(-400 -515)">
    <path id="Tracé_9" data-name="Tracé 9" class="cls-1" d="M7.132,10.323H5.11v-.9a.872.872,0,0,1,.071-.35.9.9,0,0,1,.48-.478.874.874,0,0,1,.35-.07h.3a.3.3,0,0,0,.212-.087.3.3,0,0,0,.087-.214.3.3,0,0,0-.3-.3H5.24v-.6H6.313a.864.864,0,0,1,.35.071.917.917,0,0,1,.48.478.892.892,0,0,1,0,.7.913.913,0,0,1-.48.48.862.862,0,0,1-.35.071h-.3a.3.3,0,0,0-.3.3v.3H7.132Zm2.021-.064a.9.9,0,0,0,.3-.187.893.893,0,0,0,.207-.3.97.97,0,0,0,.077-.4.955.955,0,0,0-.077-.392A.894.894,0,0,0,9.154,8.5.992.992,0,0,0,8.8,8.44H8.247L8.3,7.925H9.615v-.6H7.76L7.585,9.04H8.8a.366.366,0,0,1,.234.087.329.329,0,0,1,.08.107.347.347,0,0,1,.03.148.373.373,0,0,1-.03.157.309.309,0,0,1-.08.107.315.315,0,0,1-.111.061.429.429,0,0,1-.123.019H7.585v.6H8.8a.992.992,0,0,0,.358-.064Zm3.255-5.967V5.831h0v5.361a1.157,1.157,0,0,1-1.157,1.154H3.565a1.156,1.156,0,0,1-1.157-1.154v-6.9A1.156,1.156,0,0,1,3.565,3.138h.711V2.97a.626.626,0,0,1,1.253,0v.168H9.287V2.97a.626.626,0,0,1,1.253,0v.168h.711A1.156,1.156,0,0,1,12.408,4.292ZM9.673,3.138v.769a.241.241,0,0,0,.482,0V2.97a.241.241,0,0,0-.482,0Zm-5.012,0v.769a.241.241,0,0,0,.482,0V2.97a.241.241,0,0,0-.482,0v.168ZM2.794,5.446h9.229V4.292a.771.771,0,0,0-.771-.769H10.54v.385a.627.627,0,0,1-.626.625h0a.627.627,0,0,1-.626-.625V3.523H5.528v.385a.626.626,0,0,1-1.253,0V3.523H3.565a.771.771,0,0,0-.771.769V5.446Zm9.229.385H2.794v5.361a.771.771,0,0,0,.771.769h7.687a.771.771,0,0,0,.771-.769Z" transform="translate(397.592 512.655)"/>
  </g>
</svg>
